<?xml version="1.0" encoding="iso-8859-1"?>
<!-- Uploaded to: SVG Repo, www.svgrepo.com, Generator: SVG Repo Mixer Tools -->
<svg version="1.1" id="Layer_1" xmlns="http://www.w3.org/2000/svg" xmlns:xlink="http://www.w3.org/1999/xlink" 
	 viewBox="0 0 512 512" xml:space="preserve">
<path style="fill:#B5DDF8;" d="M489.777,183.865c0-52.074-42.214-94.29-94.29-94.29c-8.118,0-15.997,1.028-23.515,2.956
	C353.1,47.07,308.291,15.09,256,15.09s-97.099,31.98-115.974,77.443c-7.516-1.928-15.395-2.956-23.513-2.956
	c-52.076,0-94.29,42.216-94.29,94.29c0,48.806,37.097,88.9,84.625,93.743v117.865h298.308V277.61
	C452.681,272.765,489.777,232.671,489.777,183.865z"/>
<rect x="106.777" y="395.478" style="fill:#074761;" width="298.45" height="101.435"/>
<path d="M180.55,302.476c-0.981,0-1.978-0.091-2.943-0.285c-0.964-0.195-1.916-0.483-2.822-0.86
	c-0.92-0.377-1.794-0.845-2.609-1.388c-0.831-0.558-1.601-1.177-2.295-1.886c-0.694-0.694-1.328-1.464-1.871-2.294
	c-0.542-0.815-1.011-1.69-1.388-2.597c-0.377-0.919-0.679-1.855-0.875-2.822c-0.196-0.979-0.285-1.977-0.285-2.958
	c0-0.979,0.091-1.977,0.285-2.941c0.196-0.967,0.498-1.918,0.875-2.822c0.377-0.907,0.847-1.796,1.388-2.611
	c0.543-0.83,1.177-1.6,1.871-2.294s1.464-1.328,2.295-1.871c0.815-0.543,1.689-1.011,2.609-1.388
	c0.907-0.377,1.856-0.664,2.822-0.86c4.889-0.996,10.11,0.619,13.611,4.12c0.696,0.694,1.329,1.464,1.871,2.294
	c0.543,0.815,1.011,1.705,1.388,2.611c0.377,0.905,0.664,1.855,0.86,2.822c0.196,0.966,0.302,1.962,0.302,2.941
	c0,0.981-0.106,1.978-0.302,2.958c-0.196,0.967-0.483,1.903-0.86,2.822c-0.377,0.907-0.845,1.782-1.388,2.597
	c-0.542,0.83-1.176,1.6-1.871,2.294c-0.694,0.709-1.464,1.328-2.294,1.886c-0.815,0.543-1.69,1.011-2.595,1.388
	c-0.92,0.377-1.871,0.664-2.837,0.86C182.525,302.387,181.529,302.476,180.55,302.476z"/>
<path d="M331.45,302.476c-0.981,0-1.978-0.091-2.943-0.285c-0.964-0.195-1.916-0.483-2.822-0.86
	c-0.92-0.377-1.794-0.845-2.609-1.388c-0.831-0.558-1.601-1.177-2.295-1.886c-0.694-0.694-1.328-1.464-1.871-2.294
	c-0.542-0.815-1.011-1.69-1.388-2.597c-0.377-0.919-0.679-1.855-0.875-2.822c-0.196-0.979-0.285-1.977-0.285-2.958
	c0-0.979,0.091-1.977,0.285-2.941c0.196-0.967,0.498-1.918,0.875-2.822c0.377-0.907,0.847-1.796,1.388-2.611
	c0.543-0.83,1.177-1.6,1.871-2.294s1.464-1.328,2.295-1.871c0.815-0.543,1.689-1.011,2.609-1.388
	c0.907-0.377,1.856-0.664,2.822-0.86c1.947-0.392,3.938-0.392,5.885,0c0.966,0.196,1.916,0.483,2.82,0.86
	c0.92,0.377,1.796,0.845,2.611,1.388c0.83,0.543,1.6,1.177,2.294,1.871c0.696,0.694,1.329,1.464,1.871,2.294
	c0.543,0.815,1.011,1.705,1.388,2.611s0.664,1.855,0.86,2.822c0.196,0.966,0.302,1.962,0.302,2.941c0,0.981-0.106,1.978-0.302,2.958
	c-0.196,0.967-0.483,1.903-0.86,2.822c-0.377,0.907-0.845,1.782-1.388,2.597c-0.542,0.83-1.176,1.6-1.871,2.294
	c-0.694,0.709-1.464,1.328-2.294,1.886c-0.815,0.543-1.69,1.011-2.611,1.388c-0.905,0.377-1.855,0.664-2.82,0.86
	C333.425,302.387,332.429,302.476,331.45,302.476z"/>
<path d="M256,449.226c-0.981,0-1.978-0.091-2.943-0.285c-0.964-0.195-1.916-0.483-2.822-0.86c-0.921-0.377-1.794-0.845-2.609-1.388
	c-0.831-0.543-1.601-1.177-2.295-1.871c-2.807-2.822-4.421-6.698-4.421-10.667c0-0.996,0.091-1.978,0.285-2.958
	c0.196-0.967,0.498-1.918,0.875-2.822c0.377-0.907,0.83-1.796,1.388-2.611c0.543-0.83,1.177-1.6,1.871-2.294
	s1.464-1.328,2.295-1.871c0.815-0.543,1.689-1.011,2.609-1.388c0.907-0.377,1.856-0.664,2.822-0.86c1.947-0.392,3.938-0.392,5.885,0
	c0.966,0.196,1.916,0.483,2.82,0.86c0.921,0.377,1.796,0.845,2.611,1.388c0.83,0.543,1.6,1.177,2.294,1.871
	c0.696,0.694,1.329,1.464,1.871,2.294c0.543,0.815,1.011,1.705,1.388,2.611c0.377,0.905,0.679,1.855,0.875,2.822
	c0.196,0.979,0.287,1.962,0.287,2.958c0,3.969-1.615,7.845-4.423,10.667c-0.694,0.694-1.464,1.328-2.294,1.871
	c-0.815,0.543-1.69,1.011-2.611,1.388c-0.905,0.377-1.855,0.664-2.82,0.86C257.975,449.137,256.979,449.226,256,449.226z"/>
<path d="M504.868,183.865c0-60.312-49.068-109.378-109.38-109.378c-4.974,0-9.931,0.337-14.836,1.002
	C356.543,29.249,308.869,0,256,0S155.457,29.249,131.348,75.488c-4.904-0.665-9.863-1.002-14.836-1.002
	c-60.313,0-109.38,49.068-109.38,109.378c0,51.652,35.531,95.271,84.625,106.523v103.744c-0.039,0.444-0.068,0.89-0.068,1.343
	V496.91c0,8.333,6.757,15.09,15.09,15.09H405.22c8.333,0,15.09-6.757,15.09-15.09V395.474c0-0.453-0.029-0.899-0.068-1.343V290.387
	C469.338,279.134,504.868,235.515,504.868,183.865z M37.312,183.865c0-43.67,35.529-79.198,79.2-79.198
	c6.695,0,13.344,0.836,19.762,2.484c7.267,1.864,14.809-1.897,17.688-8.832C171.146,56.927,211.198,30.18,256,30.18
	s84.852,26.747,102.038,68.137c2.878,6.934,10.418,10.697,17.687,8.832c6.419-1.648,13.068-2.484,19.763-2.484
	c43.67,0,79.2,35.528,79.2,79.198c0,40.755-30.551,74.602-71.065,78.732c-7.702,0.785-13.56,7.27-13.56,15.012v102.775H346.54
	V332.66c0-8.333-6.757-15.09-15.09-15.09c-8.333,0-15.09,6.757-15.09,15.09v47.722h-45.27V287.39c0-8.333-6.757-15.09-15.09-15.09
	c-8.333,0-15.09,6.757-15.09,15.09v92.992h-45.27V332.66c0-8.333-6.757-15.09-15.09-15.09c-8.333,0-15.09,6.757-15.09,15.09v47.722
	h-43.524V277.607c0-7.741-5.858-14.228-13.56-15.012C67.863,258.467,37.312,224.62,37.312,183.865z M390.132,481.82H121.868v-71.256
	h43.592v23.578c0,8.333,6.757,15.09,15.09,15.09c8.333,0,15.09-6.757,15.09-15.09v-23.578h120.72v23.578
	c0,8.333,6.757,15.09,15.09,15.09s15.09-6.757,15.09-15.09v-23.578h43.592V481.82z"/>
<path d="M186.075,127.986c7.697,3.193,16.527-0.451,19.721-8.15C214.252,99.464,233.96,86.301,256,86.301
	s41.746,13.163,50.204,33.534c2.41,5.807,8.025,9.309,13.942,9.309c1.927,0,3.889-0.373,5.779-1.159
	c7.697-3.195,11.348-12.025,8.15-19.721C320.926,76.589,290.28,56.121,256,56.121s-64.926,20.467-78.076,52.143
	C174.728,115.962,178.377,124.791,186.075,127.986z"/>
</svg>