<?xml version="1.0" encoding="iso-8859-1"?>
<!-- Uploaded to: SVG Repo, www.svgrepo.com, Generator: SVG Repo Mixer Tools -->
<svg height="800px" width="800px" version="1.1" id="Layer_1" xmlns="http://www.w3.org/2000/svg" xmlns:xlink="http://www.w3.org/1999/xlink" 
	 viewBox="0 0 512 512" xml:space="preserve">
<path style="fill:#009BDE;" d="M247.709,187.166l-46.486-46.483c-11.736-11.739-30.768-11.741-42.506,0
	c-11.739,11.737-11.739,30.769,0,42.505l26.198,26.199"/>
<path style="opacity:0.2;enable-background:new    ;" d="M223.054,162.512c-3.624,0.468-7.081,1.472-10.276,2.951l0.04-0.009
	c-13.451,5.694-40.212,9.768-59.009,11.277c1.308,2.311,2.94,4.488,4.909,6.458l26.198,26.199l62.795-22.222L223.054,162.512z"/>
<path style="fill:#61B4E4;" d="M17.822,339.563V209.808c0-19.543,15.845-35.388,35.387-35.388c5.306,0,10.339,1.168,14.856,3.26
	l-0.054-0.015c17.215,7.286,57.273,11.921,73.492,11.921s55.239-4.635,72.455-11.921l-0.04,0.008
	c4.513-2.086,9.54-3.253,14.84-3.253c7.33,0,14.139,2.229,19.786,6.045l-2.967-1.799c28.452,16.131,60.523,42.093,99.453,42.093
	c72.73,0,133.602,50.774,149.103,118.806L17.822,339.563z"/>
<g>
	<path style="fill:#FFCE00;" d="M481.459,304.544H375.618c-20.952,0-38.363,15.108-41.966,35.022l160.482,0.001
		C491.33,327.26,487.034,315.522,481.459,304.544z"/>
	<path style="fill:#FFCE00;" d="M246.659,179.287c-0.192-0.113-0.386-0.224-0.581-0.334c-0.166-0.094-0.334-0.194-0.5-0.288
		l0.301,0.183c-5.075-2.813-10.906-4.429-17.12-4.429c-5.299,0-10.326,1.166-14.84,3.253l0.04-0.008
		c-17.216,7.286-56.236,11.921-72.455,11.921c-16.219,0-56.277-4.635-73.492-11.921l0.054,0.015c-4.517-2.093-9.55-3.26-14.856-3.26
		c-19.543,0-35.387,15.845-35.387,35.388v27.994h31.692c10.358,0,19.553-4.97,25.336-12.655c11.461-12,43.456-19.428,82.307-7.429
		c21.944,6.776,78.577,36.5,104.226-29.553C256.361,185.054,251.46,182.04,246.659,179.287z"/>
	<path style="fill:#FFCE00;" d="M93.737,281.712H17.822v57.851l126.765,0.001v-7.003C144.587,304.478,121.82,281.712,93.737,281.712
		z"/>
</g>
<path style="opacity:0.2;enable-background:new    ;" d="M489.012,322.056H17.822v17.507l476.313,0.004
	C492.772,333.587,491.052,327.746,489.012,322.056z"/>
<g>
	<path style="fill:#333E48;" d="M512,364.644c0,8.513-6.966,15.478-15.477,15.478H15.477C6.964,380.122,0,373.157,0,364.644v-9.604
		c0-8.512,6.966-15.478,15.477-15.478h481.045c8.512,0,15.477,6.966,15.477,15.478v9.604H512z"/>
	<path style="fill:#333E48;" d="M238.08,240.621c-2.975,0-5.975-0.927-8.54-2.844c-6.32-4.722-7.614-13.673-2.89-19.993l25.336-33.9
		c4.722-6.319,13.675-7.612,19.992-2.89c6.32,4.722,7.614,13.673,2.891,19.993l-25.336,33.9
		C246.729,238.639,242.431,240.621,238.08,240.621z"/>
	<path style="fill:#333E48;" d="M301.568,265.628c-2.455,0.419-5.052,0.201-7.543-0.765c-7.356-2.851-11.008-11.124-8.159-18.48
		l15.472-39.927c2.851-7.356,11.123-11.009,18.481-8.16c7.354,2.85,11.007,11.125,8.157,18.479l-15.472,39.928
		C310.618,261.568,306.363,264.815,301.568,265.628z"/>
	<path style="fill:#333E48;" d="M370.147,278.163c-1.837,0.572-3.822,0.78-5.856,0.548c-7.839-0.891-13.47-7.967-12.578-15.807
		l4.376-38.466c0.893-7.837,7.967-13.471,15.807-12.575c7.838,0.892,13.469,7.967,12.579,15.806l-4.376,38.466
		C379.438,271.938,375.388,276.531,370.147,278.163z"/>
</g>
<path style="fill:#FFFFFF;" d="M236.384,289.95H167.06c-4.55,0-8.239-3.688-8.239-8.239c0-4.551,3.689-8.239,8.239-8.239h69.323
	c4.55,0,8.239,3.688,8.239,8.239C244.623,286.262,240.934,289.95,236.384,289.95z"/>
</svg>